<svg width="177" height="34" viewBox="0 0 177 34" fill="none" xmlns="http://www.w3.org/2000/svg">
<path d="M151.272 0.615723H176.781V6.72907H151.272V0.615723ZM160.772 0.615723H167.281V32.4579H160.772V0.615723Z" fill="#00BF63"/>
<path d="M133.372 33.0736C130.762 33.0736 128.453 32.4726 126.445 31.2704C124.451 30.0683 122.905 28.3823 121.805 26.2126C120.706 24.0282 120.156 21.514 120.156 18.6699V0.615723H126.665V18.6699C126.665 20.3705 126.936 21.8438 127.479 23.09C128.021 24.3214 128.791 25.267 129.788 25.9267C130.799 26.5864 131.994 26.9163 133.372 26.9163C134.765 26.9163 135.96 26.5864 136.956 25.9267C137.968 25.267 138.738 24.3214 139.265 23.09C139.808 21.8438 140.079 20.3705 140.079 18.6699V0.615723H146.588V18.6699C146.588 21.514 146.039 24.0282 144.939 26.2126C143.854 28.3823 142.307 30.0683 140.299 31.2704C138.305 32.4726 135.996 33.0736 133.372 33.0736Z" fill="#00BF63"/>
<path d="M99.0889 33.0736C95.9809 33.0736 93.1515 32.3553 90.6006 30.9186C88.0644 29.4672 86.0633 27.4807 84.5972 24.9592C83.1459 22.4376 82.4202 19.6301 82.4202 16.5368C82.4202 13.4288 83.1459 10.6141 84.5972 8.09249C86.0633 5.57092 88.0644 3.59177 90.6006 2.15506C93.1515 0.718355 95.9809 0 99.0889 0C102.226 0 105.063 0.718355 107.599 2.15506C110.135 3.59177 112.129 5.57092 113.581 8.09249C115.032 10.6141 115.758 13.4288 115.758 16.5368C115.758 19.6301 115.032 22.4376 113.581 24.9592C112.129 27.4807 110.135 29.4672 107.599 30.9186C105.063 32.3553 102.226 33.0736 99.0889 33.0736ZM99.0889 26.9163C101.039 26.9163 102.776 26.4765 104.301 25.5969C105.84 24.7026 107.042 23.4711 107.907 21.9025C108.772 20.3192 109.205 18.5306 109.205 16.5368C109.205 14.5284 108.772 12.7398 107.907 11.1712C107.042 9.58784 105.84 8.35637 104.301 7.47675C102.776 6.59714 101.039 6.15733 99.0889 6.15733C97.1391 6.15733 95.3945 6.59714 93.8552 7.47675C92.3305 8.35637 91.1357 9.58784 90.2708 11.1712C89.4058 12.7398 88.9733 14.5284 88.9733 16.5368C88.9733 18.5306 89.4058 20.3192 90.2708 21.9025C91.1357 23.4711 92.3305 24.7026 93.8552 25.5969C95.3945 26.4765 97.1391 26.9163 99.0889 26.9163Z" fill="#00BF63"/>
<path d="M55.8997 0.615723H62.4088V32.4579H55.8997V0.615723ZM62.3209 15.1074H67.1588C68.83 15.1074 70.1348 14.7263 71.0731 13.9639C72.0113 13.1869 72.4805 12.1387 72.4805 10.8193C72.4805 9.47055 72.0113 8.42233 71.0731 7.67466C70.1348 6.92698 68.83 6.55315 67.1588 6.55315H62.3209V0.615723H66.8069C69.1966 0.615723 71.315 1.03354 73.1622 1.86918C75.024 2.70482 76.4681 3.87764 77.4943 5.38765C78.5205 6.89766 79.0336 8.62758 79.0336 10.5774C79.0336 12.5272 78.5205 14.2571 77.4943 15.7671C76.4681 17.2772 75.024 18.4573 73.1622 19.3076C71.315 20.1432 69.1966 20.5611 66.8069 20.5611H62.3209V15.1074ZM63.3544 18.1421H70.5673L80.0012 32.4579H72.6124L63.3544 18.1421Z" fill="#00BF63"/>
<path d="M28.2358 0.615723H34.745V32.4579H28.2358V0.615723ZM34.6571 15.7452H39.2311C40.3892 15.7452 41.3861 15.5619 42.2218 15.1954C43.0721 14.8289 43.7171 14.3011 44.1569 13.6121C44.5967 12.923 44.8166 12.1021 44.8166 11.1491C44.8166 9.71244 44.3255 8.59093 43.3433 7.78461C42.361 6.96363 40.9903 6.55315 39.2311 6.55315H34.6571V0.615723H39.1431C41.5327 0.615723 43.6511 1.06286 45.4983 1.95714C47.3602 2.83676 48.8042 4.07555 49.8305 5.67353C50.8567 7.25684 51.3698 9.08205 51.3698 11.1491C51.3698 13.2016 50.8567 15.0268 49.8305 16.6248C48.8042 18.2227 47.3602 19.4689 45.4983 20.3631C43.6511 21.2428 41.5327 21.6826 39.1431 21.6826H34.6571V15.7452Z" fill="#00BF63"/>
<path d="M11.8748 33.0736C9.63182 33.0736 7.49141 32.6485 5.45363 31.7982C3.43051 30.9332 1.61263 29.6798 0 28.0378L4.20018 23.4418C5.35834 24.6293 6.56781 25.5089 7.8286 26.0807C9.08939 26.6378 10.4381 26.9163 11.8748 26.9163C12.945 26.9163 13.8686 26.7624 14.6456 26.4545C15.4373 26.1467 16.0384 25.7068 16.4489 25.1351C16.8593 24.5633 17.0646 23.8963 17.0646 23.134C17.0646 22.4889 16.9033 21.9391 16.5808 21.4847C16.2729 21.0302 15.7452 20.627 14.9975 20.2752C14.2498 19.9087 13.2089 19.5495 11.8748 19.1977L10.3795 18.8018C7.33015 17.9955 5.02848 16.8227 3.47449 15.2834C1.9205 13.744 1.1435 11.8675 1.1435 9.65381C1.1435 7.82127 1.63462 6.17199 2.61686 4.70596C3.5991 3.22527 4.94785 2.07443 6.66311 1.25346C8.39302 0.417819 10.3355 0 12.4906 0C14.5577 0 16.5295 0.410488 18.406 1.23147C20.2972 2.05244 21.9831 3.21794 23.4638 4.72795L19.3296 9.32395C18.2887 8.25375 17.2039 7.46209 16.075 6.94898C14.9462 6.42121 13.7514 6.15733 12.4906 6.15733C11.5816 6.15733 10.7607 6.30393 10.0276 6.59714C9.29463 6.89034 8.72288 7.30083 8.31239 7.8286C7.9019 8.34171 7.69666 8.93545 7.69666 9.60983C7.69666 10.1376 7.83593 10.5921 8.11448 10.9732C8.40768 11.3397 8.86215 11.6769 9.47789 11.9848C10.1083 12.2927 10.9512 12.5859 12.0068 12.8644L13.5021 13.2602C15.8331 13.8613 17.739 14.6163 19.2197 15.5253C20.715 16.4195 21.8219 17.4824 22.5402 18.7139C23.2586 19.9453 23.6177 21.3747 23.6177 23.002C23.6177 24.9518 23.1193 26.6891 22.1224 28.2138C21.1402 29.7384 19.7621 30.9332 17.9882 31.7982C16.2143 32.6485 14.1765 33.0736 11.8748 33.0736Z" fill="#00BF63"/>
</svg>
