<svg width="203" height="72" viewBox="0 0 203 72" fill="none" xmlns="http://www.w3.org/2000/svg">
<g filter="url(#filter0_dd_517_5904)">
<path d="M3 35C3 16.7746 17.7746 2 36 2H167C185.225 2 200 16.7746 200 35C200 53.2254 185.225 68 167 68H36C17.7746 68 3 53.2254 3 35Z" fill="#2C303D"/>
<path d="M77.9297 30.1016H68.8906V28.9062H77.9297V30.1016ZM80.0703 34.6641H67.2734V33.4453H80.0703V34.6641ZM78.4609 29.8203C78.4609 30.5599 78.4401 31.224 78.3984 31.8125C78.3568 32.401 78.2526 33.0703 78.0859 33.8203L76.6172 33.6641C76.7839 32.9349 76.888 32.2891 76.9297 31.7266C76.9714 31.1641 76.9922 30.5286 76.9922 29.8203V28.9062H78.4609V29.8203ZM78.4766 39.5625H70.2656V41.3672H68.7812V38.4453H77V37.0938H68.7578V35.9141H78.4766V39.5625ZM78.8281 42.1719H68.7812V40.9844H78.8281V42.1719ZM85.1016 31.125C85.1016 31.8594 84.9792 32.5781 84.7344 33.2812C84.4948 33.9844 84.1406 34.6198 83.6719 35.1875C83.2031 35.7552 82.6302 36.1927 81.9531 36.5L81.1719 35.375C81.7604 35.1146 82.263 34.7526 82.6797 34.2891C83.0964 33.8203 83.4089 33.3125 83.6172 32.7656C83.8307 32.2135 83.9375 31.6667 83.9375 31.125V29.4141H85.1016V31.125ZM85.4219 31.125C85.4219 31.651 85.5208 32.1979 85.7188 32.7656C85.9219 33.3281 86.2266 33.849 86.6328 34.3281C87.0391 34.8073 87.5391 35.1875 88.1328 35.4688L87.4609 36.6719C86.7578 36.3594 86.1641 35.9036 85.6797 35.3047C85.2005 34.7005 84.8464 34.0365 84.6172 33.3125C84.3932 32.5833 84.2812 31.8542 84.2812 31.125V29.4141H85.4219V31.125ZM90.6641 31.125C90.6641 31.875 90.5495 32.6146 90.3203 33.3438C90.0964 34.0677 89.7422 34.724 89.2578 35.3125C88.7786 35.901 88.1797 36.3542 87.4609 36.6719L86.8125 35.4688C87.3958 35.1979 87.8906 34.8307 88.2969 34.3672C88.7083 33.9036 89.0156 33.3906 89.2188 32.8281C89.4219 32.2656 89.5234 31.6979 89.5234 31.125V29.4141H90.6641V31.125ZM91.0078 31.125C91.0078 31.7083 91.112 32.276 91.3203 32.8281C91.5339 33.375 91.849 33.8724 92.2656 34.3203C92.6875 34.7682 93.1953 35.1198 93.7891 35.375L93.0078 36.5C92.3255 36.2031 91.7474 35.7812 91.2734 35.2344C90.7995 34.6823 90.4453 34.0573 90.2109 33.3594C89.9766 32.6562 89.8594 31.9115 89.8594 31.125V29.4141H91.0078V31.125ZM93.8828 40.5H81.1016V39.25H93.8828V40.5ZM106.555 42.3203H105.07V28.3281H106.555V42.3203ZM102.398 29.8125C102.398 31.2396 102.18 32.5599 101.742 33.7734C101.31 34.987 100.609 36.1042 99.6406 37.125C98.6719 38.1458 97.4115 39.0312 95.8594 39.7812L95.0703 38.5859C96.4141 37.9505 97.5182 37.2109 98.3828 36.3672C99.2474 35.5182 99.8854 34.5729 100.297 33.5312C100.708 32.4844 100.914 31.3281 100.914 30.0625V29.8125H102.398ZM101.578 31.0234H95.7344V29.8125H101.578V31.0234Z" fill="white"/>
<path d="M118.5 35H130.5" stroke="white" stroke-width="1.5" stroke-linecap="round" stroke-linejoin="round"/>
<path d="M124.5 41V29" stroke="white" stroke-width="1.5" stroke-linecap="round" stroke-linejoin="round"/>
</g>
<defs>
<filter id="filter0_dd_517_5904" x="0" y="0" width="203" height="72" filterUnits="userSpaceOnUse" color-interpolation-filters="sRGB">
<feFlood flood-opacity="0" result="BackgroundImageFix"/>
<feColorMatrix in="SourceAlpha" type="matrix" values="0 0 0 0 0 0 0 0 0 0 0 0 0 0 0 0 0 0 127 0" result="hardAlpha"/>
<feOffset dy="1"/>
<feGaussianBlur stdDeviation="1.5"/>
<feColorMatrix type="matrix" values="0 0 0 0 0 0 0 0 0 0 0 0 0 0 0 0 0 0 0.04 0"/>
<feBlend mode="normal" in2="BackgroundImageFix" result="effect1_dropShadow_517_5904"/>
<feColorMatrix in="SourceAlpha" type="matrix" values="0 0 0 0 0 0 0 0 0 0 0 0 0 0 0 0 0 0 127 0" result="hardAlpha"/>
<feOffset dy="1"/>
<feGaussianBlur stdDeviation="1"/>
<feColorMatrix type="matrix" values="0 0 0 0 0 0 0 0 0 0 0 0 0 0 0 0 0 0 0.04 0"/>
<feBlend mode="normal" in2="effect1_dropShadow_517_5904" result="effect2_dropShadow_517_5904"/>
<feBlend mode="normal" in="SourceGraphic" in2="effect2_dropShadow_517_5904" result="shape"/>
</filter>
</defs>
</svg>
