<svg width="165" height="72" viewBox="0 0 165 72" fill="none" xmlns="http://www.w3.org/2000/svg">
<g filter="url(#filter0_dd_469_3984)">
<path d="M3 35C3 16.7746 17.7746 2 36 2H129C147.225 2 162 16.7746 162 35C162 53.2254 147.225 68 129 68H36C17.7746 68 3 53.2254 3 35Z" fill="white"/>
<path d="M66.8594 32.4453C66.8594 33.4401 66.6875 34.4193 66.3438 35.3828C66.0052 36.3411 65.5339 37.1979 64.9297 37.9531C64.3255 38.7083 63.6432 39.2734 62.8828 39.6484L62.0234 38.4609C62.7109 38.1276 63.3333 37.638 63.8906 36.9922C64.4479 36.3464 64.8828 35.625 65.1953 34.8281C65.513 34.026 65.6719 33.2318 65.6719 32.4453V30.3906H66.8594V32.4453ZM67.1328 32.4453C67.1328 33.1745 67.2865 33.9167 67.5938 34.6719C67.901 35.4219 68.3281 36.1016 68.875 36.7109C69.4219 37.3203 70.0391 37.7865 70.7266 38.1094L69.8906 39.2969C69.1302 38.9323 68.4479 38.3906 67.8438 37.6719C67.2448 36.9531 66.7812 36.138 66.4531 35.2266C66.125 34.3151 65.9609 33.388 65.9609 32.4453V30.3906H67.1328V32.4453ZM70.1797 30.9766H62.5312V29.7188H70.1797V30.9766ZM73.1797 42.3203H71.6797V28.3359H73.1797V42.3203ZM75.4219 35.1328H72.8438V33.8828H75.4219V35.1328ZM80.7891 42.3203H79.2734V37.0312H80.7891V42.3203ZM85.6484 42.3203H84.1328V37.0312H85.6484V42.3203ZM88.8906 37.4609H76.0859V36.2266H88.8906V37.4609ZM82.4609 28.8594C83.4453 28.8594 84.3151 28.987 85.0703 29.2422C85.8255 29.4922 86.4115 29.849 86.8281 30.3125C87.2448 30.776 87.4531 31.3177 87.4531 31.9375C87.4531 32.5521 87.2422 33.0911 86.8203 33.5547C86.3984 34.013 85.8125 34.3698 85.0625 34.625C84.3125 34.8802 83.4453 35.0078 82.4609 35.0078C81.487 35.0078 80.6224 34.8802 79.8672 34.625C79.112 34.3698 78.5234 34.013 78.1016 33.5547C77.6849 33.0911 77.4766 32.5521 77.4766 31.9375C77.4766 31.3177 77.6849 30.776 78.1016 30.3125C78.5234 29.849 79.1094 29.4922 79.8594 29.2422C80.6094 28.987 81.4766 28.8594 82.4609 28.8594ZM82.4609 30.0547C81.7734 30.0547 81.1693 30.1328 80.6484 30.2891C80.1276 30.4401 79.724 30.6589 79.4375 30.9453C79.1562 31.2266 79.0156 31.5573 79.0156 31.9375C79.0156 32.3125 79.1562 32.6432 79.4375 32.9297C79.724 33.2109 80.125 33.4245 80.6406 33.5703C81.1615 33.7161 81.7682 33.7891 82.4609 33.7891C83.1536 33.7891 83.7578 33.7161 84.2734 33.5703C84.7943 33.4245 85.1979 33.2109 85.4844 32.9297C85.7708 32.6432 85.9141 32.3125 85.9141 31.9375C85.9141 31.5573 85.7708 31.2266 85.4844 30.9453C85.1979 30.6589 84.7943 30.4401 84.2734 30.2891C83.7578 30.1328 83.1536 30.0547 82.4609 30.0547ZM100.586 30.1016H91.5469V28.9062H100.586V30.1016ZM102.727 34.6641H89.9297V33.4453H102.727V34.6641ZM101.117 29.8203C101.117 30.5599 101.096 31.224 101.055 31.8125C101.013 32.401 100.909 33.0703 100.742 33.8203L99.2734 33.6641C99.4401 32.9349 99.5443 32.2891 99.5859 31.7266C99.6276 31.1641 99.6484 30.5286 99.6484 29.8203V28.9062H101.117V29.8203ZM101.133 39.5625H92.9219V41.3672H91.4375V38.4453H99.6562V37.0938H91.4141V35.9141H101.133V39.5625ZM101.484 42.1719H91.4375V40.9844H101.484V42.1719Z" fill="#2C303D"/>
</g>
<defs>
<filter id="filter0_dd_469_3984" x="0" y="0" width="165" height="72" filterUnits="userSpaceOnUse" color-interpolation-filters="sRGB">
<feFlood flood-opacity="0" result="BackgroundImageFix"/>
<feColorMatrix in="SourceAlpha" type="matrix" values="0 0 0 0 0 0 0 0 0 0 0 0 0 0 0 0 0 0 127 0" result="hardAlpha"/>
<feOffset dy="1"/>
<feGaussianBlur stdDeviation="1.5"/>
<feColorMatrix type="matrix" values="0 0 0 0 0 0 0 0 0 0 0 0 0 0 0 0 0 0 0.04 0"/>
<feBlend mode="normal" in2="BackgroundImageFix" result="effect1_dropShadow_469_3984"/>
<feColorMatrix in="SourceAlpha" type="matrix" values="0 0 0 0 0 0 0 0 0 0 0 0 0 0 0 0 0 0 127 0" result="hardAlpha"/>
<feOffset dy="1"/>
<feGaussianBlur stdDeviation="1"/>
<feColorMatrix type="matrix" values="0 0 0 0 0 0 0 0 0 0 0 0 0 0 0 0 0 0 0.04 0"/>
<feBlend mode="normal" in2="effect1_dropShadow_469_3984" result="effect2_dropShadow_469_3984"/>
<feBlend mode="normal" in="SourceGraphic" in2="effect2_dropShadow_469_3984" result="shape"/>
</filter>
</defs>
</svg>
