<svg width="165" height="72" viewBox="0 0 165 72" fill="none" xmlns="http://www.w3.org/2000/svg">
<g filter="url(#filter0_dd_469_3976)">
<path d="M3 35C3 16.7746 17.7746 2 36 2H129C147.225 2 162 16.7746 162 35C162 53.2254 147.225 68 129 68H36C17.7746 68 3 53.2254 3 35Z" fill="white"/>
<path d="M70.6484 33.0156H68.3125V31.7969H70.6484V33.0156ZM63.7891 34.7812C64.9297 34.7812 65.8672 34.7578 66.6016 34.7109C67.3411 34.6589 68.0781 34.5651 68.8125 34.4297L68.9609 35.6094C68.2005 35.7552 67.4505 35.8516 66.7109 35.8984C65.9766 35.9453 65.0026 35.9688 63.7891 35.9688H62.8984V34.7812H63.7891ZM68.2188 30.4141H64.3203V35.4844H62.8984V29.2188H68.2188V30.4141ZM67.6719 33.0938H63.8906V31.9453H67.6719V33.0938ZM74.2109 36.7188H72.7891V28.3359H74.2109V36.7188ZM71.4531 36.6016H70.0547V28.5469H71.4531V36.6016ZM74.2109 42.1484H64.8438V37.3594H74.2109V42.1484ZM66.3281 40.9453H72.75V38.5469H66.3281V40.9453ZM87.6797 29.8828H77.2578V28.7422H87.6797V29.8828ZM87.5938 33.4219H77.3359V32.2812H87.5938V33.4219ZM80.7969 33.0312H79.2969V29.1797H80.7969V33.0312ZM85.6328 33.0312H84.1328V29.1797H85.6328V33.0312ZM88.8594 35.6406H76.1016V34.4609H88.8594V35.6406ZM87.25 39.9297H79.1172V41.5078H77.6406V38.8828H85.7734V37.8281H77.6172V36.7266H87.25V39.9297ZM87.6484 42.1719H77.6406V41.0547H87.6484V42.1719ZM101.531 37.8203H100.047V28.3359H101.531V37.8203ZM91.8203 35.1094C93.2891 35.1094 94.5182 35.0781 95.5078 35.0156C96.4974 34.9531 97.4974 34.8333 98.5078 34.6562L98.6641 35.8594C97.6172 36.0365 96.5833 36.1589 95.5625 36.2266C94.5469 36.2943 93.2995 36.3281 91.8203 36.3281H90.6562V35.1094H91.8203ZM97.0547 33.2734H92.1172V35.6641H90.6562V32.1328H95.5859V30.4297H90.625V29.2109H97.0547V33.2734ZM97.4062 37.4609C97.4062 38.2891 97.1719 39.0391 96.7031 39.7109C96.2396 40.3776 95.6016 40.9271 94.7891 41.3594C93.9766 41.7969 93.0573 42.1016 92.0312 42.2734L91.4766 41.1094C92.3672 40.9792 93.1641 40.7422 93.8672 40.3984C94.5755 40.0495 95.1302 39.6224 95.5312 39.1172C95.9375 38.612 96.1406 38.0599 96.1406 37.4609V37.1094H97.4062V37.4609ZM97.6797 37.4609C97.6797 38.0547 97.8802 38.6068 98.2812 39.1172C98.6823 39.6276 99.2344 40.0547 99.9375 40.3984C100.646 40.7422 101.445 40.9792 102.336 41.1094L101.766 42.2734C100.74 42.1016 99.8203 41.7969 99.0078 41.3594C98.2005 40.9219 97.5651 40.3698 97.1016 39.7031C96.6432 39.0365 96.4141 38.2891 96.4141 37.4609V37.1094H97.6797V37.4609Z" fill="#2C303D"/>
</g>
<defs>
<filter id="filter0_dd_469_3976" x="0" y="0" width="165" height="72" filterUnits="userSpaceOnUse" color-interpolation-filters="sRGB">
<feFlood flood-opacity="0" result="BackgroundImageFix"/>
<feColorMatrix in="SourceAlpha" type="matrix" values="0 0 0 0 0 0 0 0 0 0 0 0 0 0 0 0 0 0 127 0" result="hardAlpha"/>
<feOffset dy="1"/>
<feGaussianBlur stdDeviation="1.5"/>
<feColorMatrix type="matrix" values="0 0 0 0 0 0 0 0 0 0 0 0 0 0 0 0 0 0 0.04 0"/>
<feBlend mode="normal" in2="BackgroundImageFix" result="effect1_dropShadow_469_3976"/>
<feColorMatrix in="SourceAlpha" type="matrix" values="0 0 0 0 0 0 0 0 0 0 0 0 0 0 0 0 0 0 127 0" result="hardAlpha"/>
<feOffset dy="1"/>
<feGaussianBlur stdDeviation="1"/>
<feColorMatrix type="matrix" values="0 0 0 0 0 0 0 0 0 0 0 0 0 0 0 0 0 0 0.04 0"/>
<feBlend mode="normal" in2="effect1_dropShadow_469_3976" result="effect2_dropShadow_469_3976"/>
<feBlend mode="normal" in="SourceGraphic" in2="effect2_dropShadow_469_3976" result="shape"/>
</filter>
</defs>
</svg>
